<?xml version='1.0' encoding='ASCII' standalone='yes'?>
<svg xmlns="http://www.w3.org/2000/svg" xmlns:xlink="http://www.w3.org/1999/xlink" version="1.1" width="8.0cm" viewBox="0 0 8.0cm 8.0cm" height="8.0cm">
  <g>
    <g>
      <g transform="translate(100, 0) scale(1) translate(0, 0) scale(0.025) "><g transform="matrix(1,0,0,1,-567.803,-354.183)">
        <g>
            <path d="M1061.36,475.75C1062.16,469.042 1073.21,454.699 1079.15,444.182C1086.07,431.936 1093.15,415.063 1102.85,402.278C1113.45,388.305 1134.39,368.219 1142.75,360.345C1145.54,357.711 1155.38,352.036 1152.98,355.035C1150.56,358.051 1136,370.15 1128.26,378.444C1120.11,387.169 1110.84,396.779 1104.1,407.384C1094.4,422.632 1071.69,464.324 1070.09,469.936C1068.48,475.547 1085.81,450.22 1094.44,441.055C1104.51,430.369 1117.42,416.374 1130.5,405.823C1144.26,394.72 1164.49,381.391 1177.02,374.437C1185.89,369.509 1206,363.486 1205.67,364.096C1205.34,364.707 1184.67,372.332 1175.04,378.101C1163.36,385.1 1146.91,396.541 1135.57,406.09C1125.12,414.88 1115.93,425.106 1106.96,435.396C1097.41,446.356 1081.83,464.612 1078.24,471.851C1076.76,474.842 1083.8,479.42 1085.42,478.834C1087.04,478.248 1085.54,471.019 1087.94,468.335C1093.97,461.586 1109.86,447.73 1121.6,438.341C1134.31,428.167 1154.35,413.987 1164.22,407.294C1169.46,403.746 1175.24,401.066 1180.87,398.18C1187.64,394.71 1196.67,389.99 1204.84,386.472C1213.46,382.761 1226.04,378.08 1232.56,375.917C1236.24,374.696 1245.18,372.641 1243.93,373.495C1242.67,374.349 1231.23,378.264 1225.04,381.042C1216.18,385.024 1200.95,391.952 1190.76,397.384C1181.52,402.307 1172.43,407.595 1163.88,413.632C1153.38,421.043 1137.03,434.435 1127.75,441.849C1121.12,447.14 1113.88,452.826 1108.2,458.117C1103.03,462.94 1096.65,469.547 1093.68,473.595C1091.83,476.122 1089.93,480.503 1090.39,482.401C1090.85,484.299 1094.59,486.147 1096.45,484.983C1099.81,482.889 1106.03,473.973 1110.52,469.834C1114.47,466.195 1119.15,463.335 1123.39,460.15C1127.58,457.004 1131.66,453.708 1135.96,450.723C1140.49,447.577 1145.78,444.511 1150.6,441.275C1156.2,437.518 1163.11,432.346 1169.57,428.179C1176.11,423.952 1182.82,419.483 1189.88,415.913C1197.68,411.969 1207.08,407.004 1216.36,404.512C1225.85,401.963 1244.85,400.29 1246.82,400.622C1248.79,400.953 1234.3,404.261 1228.18,406.5C1219.77,409.583 1205.34,414.806 1196.31,419.115C1188.49,422.839 1181.19,427.576 1173.97,432.351C1166.71,437.158 1159.72,443.075 1152.72,447.958C1145.93,452.697 1138.5,456.8 1131.99,461.65C1125.59,466.419 1118.86,471.01 1113.66,477.059C1108.47,483.108 1107.39,496.718 1100.84,497.946C1094.28,499.174 1080.91,488.124 1074.33,484.424C1069.79,481.875 1060.74,480.914 1061.36,475.75Z" style="fill:rgb(55,53,54);"/>
            <g transform="matrix(-0.5,0.866025,0.866025,0.5,1081.96,-632.334)">
                <path d="M1061.36,475.75C1062.16,469.042 1073.21,454.699 1079.15,444.182C1086.07,431.936 1093.15,415.063 1102.85,402.278C1113.45,388.305 1134.39,368.219 1142.75,360.345C1145.54,357.711 1155.38,352.036 1152.98,355.035C1150.56,358.051 1136,370.15 1128.26,378.444C1120.11,387.169 1110.84,396.779 1104.1,407.384C1094.4,422.632 1071.69,464.324 1070.09,469.936C1068.48,475.547 1085.81,450.22 1094.44,441.055C1104.51,430.369 1117.42,416.374 1130.5,405.823C1144.26,394.72 1164.49,381.391 1177.02,374.437C1185.89,369.509 1206,363.486 1205.67,364.096C1205.34,364.707 1184.67,372.332 1175.04,378.101C1163.36,385.1 1146.91,396.541 1135.57,406.09C1125.12,414.88 1115.93,425.106 1106.96,435.396C1097.41,446.356 1081.83,464.612 1078.24,471.851C1076.76,474.842 1083.8,479.42 1085.42,478.834C1087.04,478.248 1085.54,471.019 1087.94,468.335C1093.97,461.586 1109.86,447.73 1121.6,438.341C1134.31,428.167 1154.35,413.987 1164.22,407.294C1169.46,403.746 1175.24,401.066 1180.87,398.18C1187.64,394.71 1196.67,389.99 1204.84,386.472C1213.46,382.761 1226.04,378.08 1232.56,375.917C1236.24,374.696 1245.18,372.641 1243.93,373.495C1242.67,374.349 1231.23,378.264 1225.04,381.042C1216.18,385.024 1200.95,391.952 1190.76,397.384C1181.52,402.307 1172.43,407.595 1163.88,413.632C1153.38,421.043 1137.03,434.435 1127.75,441.849C1121.12,447.14 1113.88,452.826 1108.2,458.117C1103.03,462.94 1096.65,469.547 1093.68,473.595C1091.83,476.122 1089.93,480.503 1090.39,482.401C1090.85,484.299 1094.59,486.147 1096.45,484.983C1099.81,482.889 1106.03,473.973 1110.52,469.834C1114.47,466.195 1119.15,463.335 1123.39,460.15C1127.58,457.004 1131.66,453.708 1135.96,450.723C1140.49,447.577 1145.78,444.511 1150.6,441.275C1156.2,437.518 1163.11,432.346 1169.57,428.179C1176.11,423.952 1182.82,419.483 1189.88,415.913C1197.68,411.969 1207.08,407.004 1216.36,404.512C1225.85,401.963 1244.85,400.29 1246.82,400.622C1248.79,400.953 1234.3,404.261 1228.18,406.5C1219.77,409.583 1205.34,414.806 1196.31,419.115C1188.49,422.839 1181.19,427.576 1173.97,432.351C1166.71,437.158 1159.72,443.075 1152.72,447.958C1145.93,452.697 1138.5,456.8 1131.99,461.65C1125.59,466.419 1118.86,471.01 1113.66,477.059C1108.47,483.108 1107.39,496.718 1100.84,497.946C1094.28,499.174 1080.91,488.124 1074.33,484.424C1069.79,481.875 1060.74,480.914 1061.36,475.75Z" style="fill:rgb(55,53,54);"/>
            </g>
            <path d="M684.581,1464.45C669.956,1465.94 656.788,1449.14 642.331,1451.81C625.386,1454.93 595.3,1468.33 582.911,1483.19C570.521,1498.04 566.875,1521.08 567.994,1540.93C569.33,1564.63 580.65,1599.01 590.926,1625.38C601.011,1651.26 619.954,1680.4 629.655,1699.16C636.298,1712 641.332,1731.62 649.13,1737.92C656.217,1743.65 668.049,1734.28 676.445,1736.95C684.842,1739.63 693.963,1746.21 699.507,1754C715.239,1776.1 757.503,1841.09 770.841,1869.55C778.745,1886.42 780.989,1906.18 779.533,1924.75C776.473,1963.79 761.426,2044.1 752.479,2103.8C739.638,2189.46 705.171,2358.68 702.492,2438.72C700.828,2488.44 716.638,2538.4 736.406,2584.05C756.393,2630.2 800.159,2669.85 822.414,2715.64C844.391,2760.86 862,2810.13 869.934,2858.79C877.868,2907.45 878.405,2970.77 870.018,3007.61C863.503,3036.23 819.443,3071.28 819.614,3079.81C819.785,3088.35 854.414,3069.99 871.045,3058.83C895.618,3042.34 913.629,2973.69 911.843,2928.07C909.281,2862.64 890.457,2732.04 855.674,2666.22C823.245,2604.86 783.381,2559.66 770.624,2503.64C757.867,2447.62 770.637,2387.39 779.132,2330.11C789.918,2257.37 816.197,2120.3 835.341,2067.2C844.485,2041.84 868.948,2021.48 893.998,2011.52C921.333,2000.64 964.128,2000.25 999.35,2001.94C1035.88,2003.68 1083.21,2012.14 1113.18,2021.98C1137.46,2029.95 1167.33,2059.05 1179.18,2060.98C1188.35,2062.47 1185.24,2041.22 1184.29,2033.58C1183.4,2026.5 1166.59,2017.14 1173.44,2015.13C1185.96,2011.47 1241.05,2014.76 1259.39,2011.59C1268.82,2009.95 1285.73,2001.11 1283.53,1996.07C1281.33,1991.03 1247.45,1986.54 1246.21,1981.35C1244.97,1976.16 1277.95,1970.59 1276.09,1964.93C1274.23,1959.27 1237.87,1957.41 1235.06,1947.38C1232.25,1937.36 1266.36,1909.06 1259.24,1904.77C1252.12,1900.47 1208.01,1923.51 1192.32,1921.61C1179.34,1920.03 1163.79,1902.45 1165.13,1893.34C1166.48,1884.23 1192.82,1879.52 1200.41,1866.94C1208.38,1853.75 1206.51,1831.07 1212.94,1814.18C1224.62,1783.45 1251.55,1721.71 1270.52,1682.6C1287.61,1647.39 1319.47,1610.1 1326.77,1579.53C1333.06,1553.18 1313.03,1526.28 1314.33,1499.22C1315.7,1470.46 1324.99,1436.86 1335.04,1406.99C1347.88,1368.86 1378.54,1312.7 1391.35,1270.39C1402.85,1232.41 1408.45,1192.67 1411.9,1153.14C1415.41,1113.04 1408.33,1061.66 1412.38,1029.78C1415.4,1005.99 1430.32,981.031 1436.19,961.879C1440.91,946.463 1440.59,929.399 1447.58,914.869C1456.13,897.102 1484.41,863.316 1487.47,855.277C1490.36,847.687 1472.14,861.773 1465.92,866.639C1459.7,871.505 1452.88,884.889 1450.16,884.473C1447.43,884.057 1447.42,870.577 1449.56,864.144C1452.8,854.41 1465.66,837.403 1469.59,826.064C1472.89,816.565 1474.67,797.862 1473.18,796.11C1471.69,794.359 1464.16,811.697 1460.67,815.555C1458.61,817.831 1452.41,821.178 1452.23,819.256C1452.05,817.334 1458.29,809.512 1459.58,804.025C1461.13,797.441 1462.79,780.877 1461.53,779.753C1460.27,778.629 1455.54,792.277 1452,797.282C1448.71,801.944 1442.04,810.485 1440.29,809.784C1438.55,809.084 1440.69,798.601 1441.53,793.079C1442.59,785.959 1448.1,768.54 1446.71,767.063C1445.32,765.585 1436.45,777.708 1433.18,784.215C1429.31,791.926 1426.31,803.705 1423.47,813.325C1420.69,822.767 1419.12,840.742 1416.16,841.937C1413.2,843.131 1408.95,819.415 1405.7,820.493C1402.46,821.572 1400.78,846.538 1396.69,848.406C1392.61,850.274 1384.5,838.54 1381.19,831.701C1376.34,821.653 1371.29,800.448 1367.57,788.116C1364.52,778.022 1357.95,764.777 1358.86,757.708C1359.65,751.57 1366.88,746.443 1373.02,745.699C1385.52,744.185 1426.42,753.628 1433.87,748.624C1441.32,743.621 1426,724.699 1417.74,715.679C1409.02,706.149 1392.99,700.369 1381.53,691.441C1369.82,682.314 1360.43,668.941 1347.46,660.911C1334.01,652.576 1315.14,649.406 1300.79,641.427C1286.63,633.554 1273.9,623.275 1261.35,613.032C1248.38,602.45 1230.56,588.212 1223,577.934C1217.58,570.556 1219.91,559.652 1216.02,551.364C1211.92,542.641 1206.15,531.12 1198.4,525.596C1190.65,520.071 1177.35,520.028 1169.52,518.217C1163.54,516.833 1156.84,517.659 1151.44,514.727C1141.54,509.341 1124.61,494.386 1110.11,485.902C1095.19,477.173 1075.24,466.714 1061.95,462.357C1051.92,459.068 1040.08,460.079 1030.4,459.762C1021.56,459.473 1009.97,461.753 1003.88,460.458C999.616,459.55 998.262,452.047 993.899,451.993C988.631,451.928 978.101,455.549 972.273,460.07C966.445,464.591 959.377,473.704 958.932,479.119C958.488,484.534 970.06,486.858 969.607,492.562C969.093,499.035 958.479,508.786 955.847,517.954C953.216,527.123 953.572,537.681 953.817,547.575C954.134,560.319 960.339,582.332 957.746,594.417C955.494,604.919 941.639,612.723 938.264,620.086C935.692,625.699 935.394,632.791 937.5,638.595C940.332,646.396 952.984,655.989 955.252,666.89C958.946,684.651 961.042,728.221 959.668,745.16C958.952,753.988 949.824,760.125 947.009,768.522C943.997,777.505 942.352,788.749 941.597,799.058C940.713,811.135 943.338,827.867 941.703,840.985C940.132,853.584 933.06,866.164 931.787,877.762C930.59,888.659 932.05,901.881 934.065,910.573C935.697,917.614 937.711,933.691 943.873,929.912C953.037,924.291 980.107,883.081 989.049,876.846C993.918,873.452 998.248,886.613 997.529,892.505C996.21,903.307 986.883,925.368 981.14,941.656C974.462,960.597 963.145,983.967 957.458,1006.15C951.544,1029.23 951.763,1055.9 945.655,1080.11C938.668,1107.79 929.325,1145.34 915.541,1172.25C902.318,1198.06 877.966,1223.09 862.948,1241.57C851.182,1256.04 835.315,1267.27 825.436,1283.09C814.875,1300 806.739,1326.23 799.587,1343.04C793.804,1356.63 790.769,1371.67 782.523,1383.93C771.353,1400.53 748.889,1429.2 732.565,1442.62C718.992,1453.78 699.62,1462.92 684.581,1464.45Z" style="fill:rgb(55,53,54);"/>
        </g>
    </g>
</g>
    </g>
    <g>
      <g><defs>
  <style type="text/css">
*{stroke-linecap:butt;stroke-linejoin:round;}
  </style>
 </defs>
 <g id="figure_1">
  <g id="patch_1">
   <path d="M 0 288  L 288 288  L 288 0  L 0 0  z " style="fill:none;"/>
  </g>
  <g id="axes_1">
   <g id="patch_2">
    <path d="M 36 252  L 259.2 252  L 259.2 34.56  L 36 34.56  z " style="fill:none;"/>
   </g>
   <g id="matplotlib.axis_1">
    <g id="xtick_1">
     <g id="line2d_1">
      <defs>
       <path d="M 0 0  L 0 3.5  " id="mba8ea75a86" style="stroke:#000000;stroke-width:0.8;"/>
      </defs>
      <g>
       <use style="stroke:#000000;stroke-width:0.8;" x="46.145455" xlink:href="#mba8ea75a86" y="252"/>
      </g>
     </g>
     <g id="text_1">
      <!-- 0 -->
      <defs>
       <path d="M 31.78125 66.40625  Q 24.171875 66.40625 20.328125 58.90625  Q 16.5 51.421875 16.5 36.375  Q 16.5 21.390625 20.328125 13.890625  Q 24.171875 6.390625 31.78125 6.390625  Q 39.453125 6.390625 43.28125 13.890625  Q 47.125 21.390625 47.125 36.375  Q 47.125 51.421875 43.28125 58.90625  Q 39.453125 66.40625 31.78125 66.40625  z M 31.78125 74.21875  Q 44.046875 74.21875 50.515625 64.515625  Q 56.984375 54.828125 56.984375 36.375  Q 56.984375 17.96875 50.515625 8.265625  Q 44.046875 -1.421875 31.78125 -1.421875  Q 19.53125 -1.421875 13.0625 8.265625  Q 6.59375 17.96875 6.59375 36.375  Q 6.59375 54.828125 13.0625 64.515625  Q 19.53125 74.21875 31.78125 74.21875  z " id="DejaVuSans-48"/>
      </defs>
      <g transform="translate(42.964205 266.598437)scale(0.1 -0.1)">
       <use xlink:href="#DejaVuSans-48"/>
      </g>
     </g>
    </g>
    <g id="xtick_2">
     <g id="line2d_2">
      <g>
       <use style="stroke:#000000;stroke-width:0.8;" x="86.727727" xlink:href="#mba8ea75a86" y="252"/>
      </g>
     </g>
     <g id="text_2">
      <!-- 5 -->
      <defs>
       <path d="M 10.796875 72.90625  L 49.515625 72.90625  L 49.515625 64.59375  L 19.828125 64.59375  L 19.828125 46.734375  Q 21.96875 47.46875 24.109375 47.828125  Q 26.265625 48.1875 28.421875 48.1875  Q 40.625 48.1875 47.75 41.5  Q 54.890625 34.8125 54.890625 23.390625  Q 54.890625 11.625 47.5625 5.09375  Q 40.234375 -1.421875 26.90625 -1.421875  Q 22.3125 -1.421875 17.546875 -0.640625  Q 12.796875 0.140625 7.71875 1.703125  L 7.71875 11.625  Q 12.109375 9.234375 16.796875 8.0625  Q 21.484375 6.890625 26.703125 6.890625  Q 35.15625 6.890625 40.078125 11.328125  Q 45.015625 15.765625 45.015625 23.390625  Q 45.015625 31 40.078125 35.4375  Q 35.15625 39.890625 26.703125 39.890625  Q 22.75 39.890625 18.8125 39.015625  Q 14.890625 38.140625 10.796875 36.28125  z " id="DejaVuSans-53"/>
      </defs>
      <g transform="translate(83.546477 266.598437)scale(0.1 -0.1)">
       <use xlink:href="#DejaVuSans-53"/>
      </g>
     </g>
    </g>
    <g id="xtick_3">
     <g id="line2d_3">
      <g>
       <use style="stroke:#000000;stroke-width:0.8;" x="127.309999" xlink:href="#mba8ea75a86" y="252"/>
      </g>
     </g>
     <g id="text_3">
      <!-- 10 -->
      <defs>
       <path d="M 12.40625 8.296875  L 28.515625 8.296875  L 28.515625 63.921875  L 10.984375 60.40625  L 10.984375 69.390625  L 28.421875 72.90625  L 38.28125 72.90625  L 38.28125 8.296875  L 54.390625 8.296875  L 54.390625 0  L 12.40625 0  z " id="DejaVuSans-49"/>
      </defs>
      <g transform="translate(120.947499 266.598437)scale(0.1 -0.1)">
       <use xlink:href="#DejaVuSans-49"/>
       <use x="63.623047" xlink:href="#DejaVuSans-48"/>
      </g>
     </g>
    </g>
    <g id="xtick_4">
     <g id="line2d_4">
      <g>
       <use style="stroke:#000000;stroke-width:0.8;" x="167.892271" xlink:href="#mba8ea75a86" y="252"/>
      </g>
     </g>
     <g id="text_4">
      <!-- 15 -->
      <g transform="translate(161.529771 266.598437)scale(0.1 -0.1)">
       <use xlink:href="#DejaVuSans-49"/>
       <use x="63.623047" xlink:href="#DejaVuSans-53"/>
      </g>
     </g>
    </g>
    <g id="xtick_5">
     <g id="line2d_5">
      <g>
       <use style="stroke:#000000;stroke-width:0.8;" x="208.474543" xlink:href="#mba8ea75a86" y="252"/>
      </g>
     </g>
     <g id="text_5">
      <!-- 20 -->
      <defs>
       <path d="M 19.1875 8.296875  L 53.609375 8.296875  L 53.609375 0  L 7.328125 0  L 7.328125 8.296875  Q 12.9375 14.109375 22.625 23.890625  Q 32.328125 33.6875 34.8125 36.53125  Q 39.546875 41.84375 41.421875 45.53125  Q 43.3125 49.21875 43.3125 52.78125  Q 43.3125 58.59375 39.234375 62.25  Q 35.15625 65.921875 28.609375 65.921875  Q 23.96875 65.921875 18.8125 64.3125  Q 13.671875 62.703125 7.8125 59.421875  L 7.8125 69.390625  Q 13.765625 71.78125 18.9375 73  Q 24.125 74.21875 28.421875 74.21875  Q 39.75 74.21875 46.484375 68.546875  Q 53.21875 62.890625 53.21875 53.421875  Q 53.21875 48.921875 51.53125 44.890625  Q 49.859375 40.875 45.40625 35.40625  Q 44.1875 33.984375 37.640625 27.21875  Q 31.109375 20.453125 19.1875 8.296875  z " id="DejaVuSans-50"/>
      </defs>
      <g transform="translate(202.112043 266.598437)scale(0.1 -0.1)">
       <use xlink:href="#DejaVuSans-50"/>
       <use x="63.623047" xlink:href="#DejaVuSans-48"/>
      </g>
     </g>
    </g>
    <g id="xtick_6">
     <g id="line2d_6">
      <g>
       <use style="stroke:#000000;stroke-width:0.8;" x="249.056815" xlink:href="#mba8ea75a86" y="252"/>
      </g>
     </g>
     <g id="text_6">
      <!-- 25 -->
      <g transform="translate(242.694315 266.598437)scale(0.1 -0.1)">
       <use xlink:href="#DejaVuSans-50"/>
       <use x="63.623047" xlink:href="#DejaVuSans-53"/>
      </g>
     </g>
    </g>
   </g>
   <g id="matplotlib.axis_2">
    <g id="ytick_1">
     <g id="line2d_7">
      <defs>
       <path d="M 0 0  L -3.5 0  " id="m6561a488b9" style="stroke:#000000;stroke-width:0.8;"/>
      </defs>
      <g>
       <use style="stroke:#000000;stroke-width:0.8;" x="36" xlink:href="#m6561a488b9" y="242.116364"/>
      </g>
     </g>
     <g id="text_7">
      <!-- 0 -->
      <g transform="translate(22.6375 245.915582)scale(0.1 -0.1)">
       <use xlink:href="#DejaVuSans-48"/>
      </g>
     </g>
    </g>
    <g id="ytick_2">
     <g id="line2d_8">
      <g>
       <use style="stroke:#000000;stroke-width:0.8;" x="36" xlink:href="#m6561a488b9" y="202.581818"/>
      </g>
     </g>
     <g id="text_8">
      <!-- 20 -->
      <g transform="translate(16.275 206.381037)scale(0.1 -0.1)">
       <use xlink:href="#DejaVuSans-50"/>
       <use x="63.623047" xlink:href="#DejaVuSans-48"/>
      </g>
     </g>
    </g>
    <g id="ytick_3">
     <g id="line2d_9">
      <g>
       <use style="stroke:#000000;stroke-width:0.8;" x="36" xlink:href="#m6561a488b9" y="163.047273"/>
      </g>
     </g>
     <g id="text_9">
      <!-- 40 -->
      <defs>
       <path d="M 37.796875 64.3125  L 12.890625 25.390625  L 37.796875 25.390625  z M 35.203125 72.90625  L 47.609375 72.90625  L 47.609375 25.390625  L 58.015625 25.390625  L 58.015625 17.1875  L 47.609375 17.1875  L 47.609375 0  L 37.796875 0  L 37.796875 17.1875  L 4.890625 17.1875  L 4.890625 26.703125  z " id="DejaVuSans-52"/>
      </defs>
      <g transform="translate(16.275 166.846491)scale(0.1 -0.1)">
       <use xlink:href="#DejaVuSans-52"/>
       <use x="63.623047" xlink:href="#DejaVuSans-48"/>
      </g>
     </g>
    </g>
    <g id="ytick_4">
     <g id="line2d_10">
      <g>
       <use style="stroke:#000000;stroke-width:0.8;" x="36" xlink:href="#m6561a488b9" y="123.512727"/>
      </g>
     </g>
     <g id="text_10">
      <!-- 60 -->
      <defs>
       <path d="M 33.015625 40.375  Q 26.375 40.375 22.484375 35.828125  Q 18.609375 31.296875 18.609375 23.390625  Q 18.609375 15.53125 22.484375 10.953125  Q 26.375 6.390625 33.015625 6.390625  Q 39.65625 6.390625 43.53125 10.953125  Q 47.40625 15.53125 47.40625 23.390625  Q 47.40625 31.296875 43.53125 35.828125  Q 39.65625 40.375 33.015625 40.375  z M 52.59375 71.296875  L 52.59375 62.3125  Q 48.875 64.0625 45.09375 64.984375  Q 41.3125 65.921875 37.59375 65.921875  Q 27.828125 65.921875 22.671875 59.328125  Q 17.53125 52.734375 16.796875 39.40625  Q 19.671875 43.65625 24.015625 45.921875  Q 28.375 48.1875 33.59375 48.1875  Q 44.578125 48.1875 50.953125 41.515625  Q 57.328125 34.859375 57.328125 23.390625  Q 57.328125 12.15625 50.6875 5.359375  Q 44.046875 -1.421875 33.015625 -1.421875  Q 20.359375 -1.421875 13.671875 8.265625  Q 6.984375 17.96875 6.984375 36.375  Q 6.984375 53.65625 15.1875 63.9375  Q 23.390625 74.21875 37.203125 74.21875  Q 40.921875 74.21875 44.703125 73.484375  Q 48.484375 72.75 52.59375 71.296875  z " id="DejaVuSans-54"/>
      </defs>
      <g transform="translate(16.275 127.311946)scale(0.1 -0.1)">
       <use xlink:href="#DejaVuSans-54"/>
       <use x="63.623047" xlink:href="#DejaVuSans-48"/>
      </g>
     </g>
    </g>
    <g id="ytick_5">
     <g id="line2d_11">
      <g>
       <use style="stroke:#000000;stroke-width:0.8;" x="36" xlink:href="#m6561a488b9" y="83.978182"/>
      </g>
     </g>
     <g id="text_11">
      <!-- 80 -->
      <defs>
       <path d="M 31.78125 34.625  Q 24.75 34.625 20.71875 30.859375  Q 16.703125 27.09375 16.703125 20.515625  Q 16.703125 13.921875 20.71875 10.15625  Q 24.75 6.390625 31.78125 6.390625  Q 38.8125 6.390625 42.859375 10.171875  Q 46.921875 13.96875 46.921875 20.515625  Q 46.921875 27.09375 42.890625 30.859375  Q 38.875 34.625 31.78125 34.625  z M 21.921875 38.8125  Q 15.578125 40.375 12.03125 44.71875  Q 8.5 49.078125 8.5 55.328125  Q 8.5 64.0625 14.71875 69.140625  Q 20.953125 74.21875 31.78125 74.21875  Q 42.671875 74.21875 48.875 69.140625  Q 55.078125 64.0625 55.078125 55.328125  Q 55.078125 49.078125 51.53125 44.71875  Q 48 40.375 41.703125 38.8125  Q 48.828125 37.15625 52.796875 32.3125  Q 56.78125 27.484375 56.78125 20.515625  Q 56.78125 9.90625 50.3125 4.234375  Q 43.84375 -1.421875 31.78125 -1.421875  Q 19.734375 -1.421875 13.25 4.234375  Q 6.78125 9.90625 6.78125 20.515625  Q 6.78125 27.484375 10.78125 32.3125  Q 14.796875 37.15625 21.921875 38.8125  z M 18.3125 54.390625  Q 18.3125 48.734375 21.84375 45.5625  Q 25.390625 42.390625 31.78125 42.390625  Q 38.140625 42.390625 41.71875 45.5625  Q 45.3125 48.734375 45.3125 54.390625  Q 45.3125 60.0625 41.71875 63.234375  Q 38.140625 66.40625 31.78125 66.40625  Q 25.390625 66.40625 21.84375 63.234375  Q 18.3125 60.0625 18.3125 54.390625  z " id="DejaVuSans-56"/>
      </defs>
      <g transform="translate(16.275 87.777401)scale(0.1 -0.1)">
       <use xlink:href="#DejaVuSans-56"/>
       <use x="63.623047" xlink:href="#DejaVuSans-48"/>
      </g>
     </g>
    </g>
    <g id="ytick_6">
     <g id="line2d_12">
      <g>
       <use style="stroke:#000000;stroke-width:0.8;" x="36" xlink:href="#m6561a488b9" y="44.443636"/>
      </g>
     </g>
     <g id="text_12">
      <!-- 100 -->
      <g transform="translate(9.9125 48.242855)scale(0.1 -0.1)">
       <use xlink:href="#DejaVuSans-49"/>
       <use x="63.623047" xlink:href="#DejaVuSans-48"/>
       <use x="127.246094" xlink:href="#DejaVuSans-48"/>
      </g>
     </g>
    </g>
   </g>
   <g id="line2d_13">
    <path clip-path="url(#p8ece420a37)" d="M 46.145455 242.116364  L 64.702331 237.488574  L 82.369494 232.860784  L 99.146943 228.232995  L 115.03468 223.605205  L 130.032703 218.977416  L 142.180012 215.010739  L 153.673655 211.044062  L 164.51363 207.077385  L 174.699939 203.110708  L 184.232581 199.144032  L 193.111556 195.177355  L 200.011373 191.871791  L 206.457254 188.566227  L 212.449201 185.260663  L 217.987212 181.955099  L 223.071287 178.649535  L 227.701428 175.343971  L 231.877633 172.038407  L 234.891763 169.393956  L 237.615375 166.749504  L 240.048469 164.105053  L 242.191043 161.460602  L 244.043099 158.816151  L 245.604637 156.1717  L 246.875656 153.527248  L 247.856156 150.882797  L 248.546138 148.238346  L 248.945601 145.593895  L 249.054545 142.949444  L 248.872971 140.304992  L 248.400879 137.660541  L 247.638267 135.01609  L 246.585137 132.371639  L 245.241489 129.727188  L 243.607322 127.082736  L 241.682636 124.438285  L 239.467431 121.793834  L 236.961708 119.149383  L 234.165467 116.504932  L 231.078707 113.86048  L 227.701428 111.216029  L 223.071287 107.910465  L 217.987212 104.604901  L 212.449201 101.299337  L 206.457254 97.993773  L 200.011373 94.688209  L 193.111556 91.382645  L 185.757804 88.077081  L 176.334106 84.110404  L 166.256742 80.143728  L 155.525711 76.177051  L 144.141013 72.210374  L 132.102648 68.243697  L 119.410616 64.27702  L 103.777084 59.649231  L 87.253838 55.021441  L 69.840879 50.393652  L 51.538206 45.765862  L 46.145455 44.443636  L 46.145455 44.443636  " style="fill:none;stroke:#1f77b4;stroke-linecap:square;stroke-width:1.5;"/>
   </g>
   <g id="patch_3">
    <path d="M 36 252  L 36 34.56  " style="fill:none;stroke:#000000;stroke-linecap:square;stroke-linejoin:miter;stroke-width:0.8;"/>
   </g>
   <g id="patch_4">
    <path d="M 259.2 252  L 259.2 34.56  " style="fill:none;stroke:#000000;stroke-linecap:square;stroke-linejoin:miter;stroke-width:0.8;"/>
   </g>
   <g id="patch_5">
    <path d="M 36 252  L 259.2 252  " style="fill:none;stroke:#000000;stroke-linecap:square;stroke-linejoin:miter;stroke-width:0.8;"/>
   </g>
   <g id="patch_6">
    <path d="M 36 34.56  L 259.2 34.56  " style="fill:none;stroke:#000000;stroke-linecap:square;stroke-linejoin:miter;stroke-width:0.8;"/>
   </g>
  </g>
 </g>
 <defs>
  <clipPath id="p8ece420a37">
   <rect height="217.44" width="223.2" x="36" y="34.56"/>
  </clipPath>
 </defs>
</g>
    </g>
  </g>
</svg>
